<svg version="1.1" xmlns="http://www.w3.org/2000/svg" viewBox="0 0 1120 958" width="1120" height="958">
  <!-- svg-source:excalidraw -->
  
  <defs>
    <style class="style-fonts">
      @font-face {
        font-family: "Virgil";
        src: url("https://excalidraw.com/Virgil.woff2");
      }
      @font-face {
        font-family: "Cascadia";
        src: url("https://excalidraw.com/Cascadia.woff2");
      }
      @font-face {
        font-family: "Assistant";
        src: url("https://excalidraw.com/Assistant-Regular.woff2");
      }
    </style>
    <clipPath id="wNyAAohJFNXp56VmLtbvQ">
            <rect transform="translate(0 0) rotate(0 560 479)" width="1120" height="958">
          </rect>
        </clipPath>
  </defs>
  <rect x="0" y="0" width="1120" height="958" fill="#ffffff"></rect><g clip-path="url(#wNyAAohJFNXp56VmLtbvQ)"><g stroke-linecap="round" transform="translate(68.20634920634802 442.3650793650793) rotate(0 157.50000000000045 57.5)"><path d="M28.75 0 C91.06 1.77, 158.7 0.69, 286.25 0 C302.92 -2.84, 318.39 8.66, 315 28.75 C314.81 45.37, 317.99 70.15, 315 86.25 C315.42 104.28, 306.51 115.77, 286.25 115 C229.44 116.87, 170.02 117.57, 28.75 115 C8.39 115.87, -3.56 102.19, 0 86.25 C-1.56 73.79, -2.4 57.93, 0 28.75 C-2.8 7.67, 7.43 1.98, 28.75 0" stroke="none" stroke-width="0" fill="#e3fafc"></path><path d="M28.75 0 C122.06 2.23, 214.37 0.51, 286.25 0 M286.25 0 C306.53 -1.08, 313.44 9.47, 315 28.75 M315 28.75 C314.29 39.11, 317.22 52.37, 315 86.25 M315 86.25 C315.76 105.28, 306.44 114.64, 286.25 115 M286.25 115 C224.24 115.4, 161.09 115.36, 28.75 115 M28.75 115 C10.29 113.17, 0.54 105.63, 0 86.25 M0 86.25 C0.06 68.07, -0.98 53.81, 0 28.75 M0 28.75 C-0.9 10.69, 8.77 -0.61, 28.75 0" stroke="#343a40" stroke-width="1.5" fill="none" stroke-dasharray="8 9"></path></g></g><g clip-path="url(#wNyAAohJFNXp56VmLtbvQ)"><g transform="translate(172.23759920634893 477.3650793650793) rotate(0 53.46875 22.5)"><text x="53.46875" y="31.536" font-family="Virgil, Segoe UI Emoji" font-size="36px" fill="#343a40" text-anchor="middle" style="white-space: pre;" direction="ltr" dominant-baseline="alphabetic">School</text></g></g><g clip-path="url(#wNyAAohJFNXp56VmLtbvQ)"><g stroke-linecap="round" transform="translate(737.9682539682526 438.07936507936506) rotate(0 157.50000000000045 57.5)"><path d="M28.75 0 C118.34 -2.97, 214.67 -1.43, 286.25 0 C307.11 -0.41, 315.72 9.51, 315 28.75 C316.31 39.54, 316.99 53.38, 315 86.25 C312.28 108.95, 306.28 116.23, 286.25 115 C199.33 117.86, 111.47 114.56, 28.75 115 C6.69 113.84, -0.94 103.52, 0 86.25 C-2.02 66.82, -1.37 53.2, 0 28.75 C-0.88 12.58, 11.4 -2.23, 28.75 0" stroke="none" stroke-width="0" fill="#e3fafc"></path><path d="M28.75 0 C122.13 0.12, 212.46 0.9, 286.25 0 M286.25 0 C303.6 1.97, 313.63 8.31, 315 28.75 M315 28.75 C316.23 41.03, 316.5 53.21, 315 86.25 M315 86.25 C313.92 106.88, 304.32 116.7, 286.25 115 M286.25 115 C184.96 115.45, 82.96 117.1, 28.75 115 M28.75 115 C9.48 114.88, 0.5 105.44, 0 86.25 M0 86.25 C-0.6 73.6, -0.52 58.12, 0 28.75 M0 28.75 C-0.97 8.44, 9.5 -1.7, 28.75 0" stroke="#343a40" stroke-width="1.5" fill="none" stroke-dasharray="8 9"></path></g></g><g clip-path="url(#wNyAAohJFNXp56VmLtbvQ)"><g transform="translate(829.0203398447175 473.07936507936506) rotate(0 66.44791412353516 22.5)"><text x="66.44791412353516" y="31.536" font-family="Virgil, Segoe UI Emoji" font-size="36px" fill="#343a40" text-anchor="middle" style="white-space: pre;" direction="ltr" dominant-baseline="alphabetic">Country</text></g></g><g clip-path="url(#wNyAAohJFNXp56VmLtbvQ)"><g stroke-linecap="round" transform="translate(324.3174603174575 78.07936507936509) rotate(0 224.16666666666652 96.66666666666664)"><path d="M32 0 C114.53 -0.87, 199.74 2.61, 416.33 0 C440.36 0.08, 450.51 9.88, 448.33 32 C447.55 63.42, 446.89 89.51, 448.33 161.33 C451.56 180.35, 436.35 196.83, 416.33 193.33 C339.26 193.62, 258.78 193.88, 32 193.33 C9.71 194.92, 2.04 179.6, 0 161.33 C-1.92 113.23, 1.4 70.53, 0 32 C2.39 10, 13.65 1.44, 32 0" stroke="none" stroke-width="0" fill="#e3fafc"></path><path d="M32 0 C110.91 0, 190.33 -0.41, 416.33 0 M416.33 0 C439.15 1.82, 447.3 10.54, 448.33 32 M448.33 32 C447.67 71.07, 448.5 106.63, 448.33 161.33 M448.33 161.33 C446.44 181.45, 438.5 191.62, 416.33 193.33 M416.33 193.33 C274.67 193.82, 132.34 194.69, 32 193.33 M32 193.33 C9.34 191.8, 1.22 183.71, 0 161.33 M0 161.33 C-1.59 133.16, 1.72 108.3, 0 32 M0 32 C-1.26 10.51, 10.7 -0.92, 32 0" stroke="#343a40" stroke-width="1.5" fill="none" stroke-dasharray="8 9"></path></g></g><g clip-path="url(#wNyAAohJFNXp56VmLtbvQ)"><g transform="translate(497.5257949223569 83.07936507936509) rotate(0 50.95833206176758 22.5)"><text x="50.95833206176758" y="31.536" font-family="Virgil, Segoe UI Emoji" font-size="36px" fill="#343a40" text-anchor="middle" style="white-space: pre;" direction="ltr" dominant-baseline="alphabetic">Start</text></g></g><g clip-path="url(#wNyAAohJFNXp56VmLtbvQ)"><g stroke-linecap="round" transform="translate(360.2139506878366 137.90212774900624) rotate(0 33.5622317596567 54.51785352549791)"><path d="M16.78 0 C29.86 -1.77, 43.3 -1.1, 50.34 0 C62.03 -3.13, 68.59 2.92, 67.12 16.78 C63.86 40.8, 63.22 62.8, 67.12 92.25 C67.06 106.98, 62.84 111.03, 50.34 109.04 C39.37 108.49, 26.13 112.1, 16.78 109.04 C5.15 108.05, -0.9 105.86, 0 92.25 C-1.56 70.22, -2.05 46.2, 0 16.78 C-0.01 8.84, 8.51 2.08, 16.78 0" stroke="none" stroke-width="0" fill="#99e9f2"></path><path d="M16.78 0 C28.06 -1.26, 35.9 -0.85, 50.34 0 M16.78 0 C30.16 -1.1, 41.41 0.24, 50.34 0 M50.34 0 C60.65 -0.56, 65.61 3.67, 67.12 16.78 M50.34 0 C59.64 -2.12, 68.18 7.67, 67.12 16.78 M67.12 16.78 C68.16 46.01, 67.58 75.75, 67.12 92.25 M67.12 16.78 C68.07 47.42, 67.01 77.35, 67.12 92.25 M67.12 92.25 C66.8 101.58, 59.64 110.49, 50.34 109.04 M67.12 92.25 C68.37 105.67, 59.94 110.37, 50.34 109.04 M50.34 109.04 C40.21 107.45, 32.67 110.38, 16.78 109.04 M50.34 109.04 C42.07 108.47, 34.11 108.28, 16.78 109.04 M16.78 109.04 C4.24 108.42, -1.41 104.62, 0 92.25 M16.78 109.04 C5.28 107.91, 0.46 105.05, 0 92.25 M0 92.25 C0.28 72.97, 1.36 51.83, 0 16.78 M0 92.25 C0.43 69.53, -0.45 46.97, 0 16.78 M0 16.78 C-1.03 6.88, 6.68 -1.58, 16.78 0 M0 16.78 C-0.97 5.73, 5.97 1.48, 16.78 0" stroke="#1e1e1e" stroke-width="2" fill="none"></path></g></g><g clip-path="url(#wNyAAohJFNXp56VmLtbvQ)"><g stroke-linecap="round" transform="translate(436.52807290324654 137.90212774900624) rotate(0 33.5622317596567 54.06372673967712)"><path d="M16.78 0 C25.75 -1.04, 34.28 -2.78, 50.34 0 C63 -2.67, 66.93 4.76, 67.12 16.78 C62.43 41.72, 65.96 67.07, 67.12 91.35 C68.43 104.53, 62 110.67, 50.34 108.13 C39.55 111.63, 34.72 107.13, 16.78 108.13 C4.69 110.54, 0.71 100.71, 0 91.35 C-1.9 68.84, 0.83 45.17, 0 16.78 C2.92 7.68, 3.16 -3.04, 16.78 0" stroke="none" stroke-width="0" fill="#ebfbee"></path><path d="M16.78 0 C26.86 -0.47, 42.32 -1.64, 50.34 0 M16.78 0 C28.2 0.73, 40.08 0.03, 50.34 0 M50.34 0 C60.01 -1.92, 65.48 3.75, 67.12 16.78 M50.34 0 C62.58 2.07, 69.22 4.95, 67.12 16.78 M67.12 16.78 C68.26 34.28, 69.5 53.89, 67.12 91.35 M67.12 16.78 C66.42 37.97, 67.11 56.55, 67.12 91.35 M67.12 91.35 C65.23 103.99, 62.62 110.07, 50.34 108.13 M67.12 91.35 C65.53 103.86, 61.17 107.49, 50.34 108.13 M50.34 108.13 C40.41 109.06, 26.73 107.31, 16.78 108.13 M50.34 108.13 C43.06 107.45, 33.55 107.69, 16.78 108.13 M16.78 108.13 C4.18 109.31, -0.27 101.56, 0 91.35 M16.78 108.13 C6.05 109.73, -0.69 100.31, 0 91.35 M0 91.35 C0.8 67.29, 0.04 42.56, 0 16.78 M0 91.35 C-0.77 71.4, -0.85 54.04, 0 16.78 M0 16.78 C1.08 4.02, 4.75 0.12, 16.78 0 M0 16.78 C0.38 7.08, 7.62 0.7, 16.78 0" stroke="#1e1e1e" stroke-width="2" fill="none"></path></g></g><g clip-path="url(#wNyAAohJFNXp56VmLtbvQ)"><g stroke-linecap="round" transform="translate(512.8421951186556 137.90212774900624) rotate(0 33.5622317596567 54.51785352549791)"><path d="M16.78 0 C25.43 -2.9, 34.55 -2.44, 50.34 0 C61.33 -0.83, 67.61 2.65, 67.12 16.78 C65.7 46.71, 67.08 71.58, 67.12 92.25 C67.59 105.99, 58.87 108.57, 50.34 109.04 C39.92 108.64, 29.5 112.04, 16.78 109.04 C6.3 107.21, 1.13 101.19, 0 92.25 C1.03 68.47, 3.95 40.28, 0 16.78 C-2.43 2.55, 5.34 0.99, 16.78 0" stroke="none" stroke-width="0" fill="#fff5f5"></path><path d="M16.78 0 C26.53 -1.71, 34.41 1.79, 50.34 0 M16.78 0 C23.33 -0.42, 30 -1.1, 50.34 0 M50.34 0 C59.89 -1.85, 68.04 7.4, 67.12 16.78 M50.34 0 C63.63 -0.64, 65.64 7.03, 67.12 16.78 M67.12 16.78 C69.29 40.31, 66.83 60.3, 67.12 92.25 M67.12 16.78 C66.32 44.32, 65.53 74.45, 67.12 92.25 M67.12 92.25 C68.21 105.38, 60.15 110.19, 50.34 109.04 M67.12 92.25 C66.76 102.8, 62.4 108.35, 50.34 109.04 M50.34 109.04 C42.21 108.72, 34.75 109.69, 16.78 109.04 M50.34 109.04 C40.82 108.54, 31.95 109.44, 16.78 109.04 M16.78 109.04 C5.32 108.06, 0.4 104.84, 0 92.25 M16.78 109.04 C4.91 106.81, 0.63 102.92, 0 92.25 M0 92.25 C-0.37 65.46, -1.15 39.48, 0 16.78 M0 92.25 C-0.19 74.52, 0.87 54.72, 0 16.78 M0 16.78 C-0.85 5.71, 5.92 1.29, 16.78 0 M0 16.78 C2.02 6.3, 4.52 0.04, 16.78 0" stroke="#1e1e1e" stroke-width="2" fill="none"></path></g></g><g clip-path="url(#wNyAAohJFNXp56VmLtbvQ)"><g stroke-linecap="round" transform="translate(589.1563173340655 137.90212774900624) rotate(0 33.5622317596567 54.06372673967712)"><path d="M16.78 0 C27.03 -2.15, 34.14 -0.31, 50.34 0 C62.02 -2.95, 68.92 2, 67.12 16.78 C68.41 44.39, 67.57 70.55, 67.12 91.35 C64.46 102.06, 61.43 104.92, 50.34 108.13 C36.1 110.38, 24.36 106.14, 16.78 108.13 C6.72 105.88, 2.09 99.79, 0 91.35 C2.92 66.5, -2.43 34.45, 0 16.78 C-0.25 6.59, 5.63 -1.92, 16.78 0" stroke="none" stroke-width="0" fill="#f3f0ff"></path><path d="M16.78 0 C26.83 1.99, 32.9 -0.6, 50.34 0 M16.78 0 C27.49 -0.87, 38.9 -0.83, 50.34 0 M50.34 0 C62.45 1.8, 68.95 5.03, 67.12 16.78 M50.34 0 C60.05 1.44, 66.79 6.36, 67.12 16.78 M67.12 16.78 C67.3 39.31, 69.38 59.33, 67.12 91.35 M67.12 16.78 C66.06 46.14, 67.55 75.02, 67.12 91.35 M67.12 91.35 C65.74 103.69, 61.21 107.57, 50.34 108.13 M67.12 91.35 C67.99 101.85, 59.56 109.74, 50.34 108.13 M50.34 108.13 C37.03 108.49, 25.37 109.59, 16.78 108.13 M50.34 108.13 C41.42 108.61, 33.77 107.53, 16.78 108.13 M16.78 108.13 C5.99 109.52, -0.6 100.6, 0 91.35 M16.78 108.13 C6.22 107.61, 1.28 103.26, 0 91.35 M0 91.35 C-0.86 68.53, -1.08 43.07, 0 16.78 M0 91.35 C0.93 75.41, -0.04 61.11, 0 16.78 M0 16.78 C0.33 6.88, 7.35 0.61, 16.78 0 M0 16.78 C-1.07 5.63, 4.28 0.3, 16.78 0" stroke="#1e1e1e" stroke-width="2" fill="none"></path></g></g><g clip-path="url(#wNyAAohJFNXp56VmLtbvQ)"><g stroke-linecap="round" transform="translate(665.4704395494746 137.90212774900624) rotate(0 33.5622317596567 54.06372673967712)"><path d="M16.78 0 C23.73 -0.38, 31.57 -2.5, 50.34 0 C63.32 -3.59, 68.69 5.53, 67.12 16.78 C68.08 49.01, 64.95 75.69, 67.12 91.35 C67.02 99.33, 65.05 107.68, 50.34 108.13 C41.9 106.71, 33.16 106.28, 16.78 108.13 C7.69 105.39, 2.2 102.53, 0 91.35 C-3.52 59.22, -1.34 34.16, 0 16.78 C0.04 3.68, 6.28 -0.4, 16.78 0" stroke="none" stroke-width="0" fill="#fff4e6"></path><path d="M16.78 0 C21.96 -1.19, 31.65 -1.16, 50.34 0 M16.78 0 C25.08 -0.6, 35.48 1.22, 50.34 0 M50.34 0 C63.35 -0.56, 65.84 6.84, 67.12 16.78 M50.34 0 C61.2 0.77, 67.05 7.79, 67.12 16.78 M67.12 16.78 C68.47 44.79, 68.6 75.91, 67.12 91.35 M67.12 16.78 C66.96 33.18, 65.73 48.21, 67.12 91.35 M67.12 91.35 C66.81 101.98, 62.29 107.53, 50.34 108.13 M67.12 91.35 C65.16 104.14, 62.94 107.05, 50.34 108.13 M50.34 108.13 C40.43 109.75, 30.87 106.84, 16.78 108.13 M50.34 108.13 C41.18 107.84, 32.48 109.02, 16.78 108.13 M16.78 108.13 C5 106.19, 0.55 102.08, 0 91.35 M16.78 108.13 C6.87 108.85, 0.41 102.39, 0 91.35 M0 91.35 C-0.79 67.96, -1.6 45.27, 0 16.78 M0 91.35 C-0.83 64.24, -0.24 37.66, 0 16.78 M0 16.78 C1.76 6.21, 4.66 0.03, 16.78 0 M0 16.78 C-1.31 5.9, 4.71 0.32, 16.78 0" stroke="#1e1e1e" stroke-width="2" fill="none"></path></g></g><g clip-path="url(#wNyAAohJFNXp56VmLtbvQ)"><g stroke-linecap="round"><g transform="translate(701.1428571428578 251.42857142857133) rotate(0 99.74657205039966 92.14285714285711)"><path d="M0 0 C71.7 68.41, 144.05 133.6, 199.49 184.29 M0 0 C48.81 45.31, 100.28 92.21, 199.49 184.29" stroke="#343a40" stroke-width="2" fill="none"></path></g><g transform="translate(701.1428571428578 251.42857142857133) rotate(0 99.74657205039966 92.14285714285711)"><path d="M176.44 174.6 C185.23 179.56, 193.62 180.99, 199.49 184.29 M176.44 174.6 C181.41 176, 188.47 178.75, 199.49 184.29" stroke="#343a40" stroke-width="2" fill="none"></path></g><g transform="translate(701.1428571428578 251.42857142857133) rotate(0 99.74657205039966 92.14285714285711)"><path d="M188.06 162.05 C192.55 171.52, 196.72 177.5, 199.49 184.29 M188.06 162.05 C189.99 166.67, 194.11 172.6, 199.49 184.29" stroke="#343a40" stroke-width="2" fill="none"></path></g></g><mask></mask></g><g clip-path="url(#wNyAAohJFNXp56VmLtbvQ)"><g stroke-linecap="round" transform="translate(68.20634920634802 780.9365079365078) rotate(0 157.50000000000045 57.50000000000006)"><path d="M28.75 0 C111.81 -3.57, 193.56 0.07, 286.25 0 C304.77 -2.17, 318.13 8.78, 315 28.75 C318.51 39.43, 312.86 55.47, 315 86.25 C316.88 102.25, 301.92 117.63, 286.25 115 C196.09 113.9, 112.08 112.13, 28.75 115 C6.34 114.58, -0.31 106.15, 0 86.25 C2.26 70, -3.9 50.73, 0 28.75 C1.85 9.63, 7.94 3.06, 28.75 0" stroke="none" stroke-width="0" fill="#ffec99"></path><path d="M28.75 0 C125.16 -0.31, 221.68 0.36, 286.25 0 M286.25 0 C303.44 0.25, 313.4 8.03, 315 28.75 M315 28.75 C316.09 43.57, 312.98 57.51, 315 86.25 M315 86.25 C315.66 104.5, 303.79 114.2, 286.25 115 M286.25 115 C211.36 112.4, 139.92 112.97, 28.75 115 M28.75 115 C7.8 116.09, -0.2 105.64, 0 86.25 M0 86.25 C-1.74 63.88, -0.43 38.75, 0 28.75 M0 28.75 C1.97 10.38, 10.47 -0.26, 28.75 0" stroke="#343a40" stroke-width="1.5" fill="none" stroke-dasharray="8 9"></path></g></g><g clip-path="url(#wNyAAohJFNXp56VmLtbvQ)"><g transform="translate(85.16467745341924 815.9365079365078) rotate(0 140.5416717529297 22.5)"><text x="140.5416717529297" y="31.536" font-family="Virgil, Segoe UI Emoji" font-size="36px" fill="#343a40" text-anchor="middle" style="white-space: pre;" direction="ltr" dominant-baseline="alphabetic">"Micro" indicator</text></g></g><g clip-path="url(#wNyAAohJFNXp56VmLtbvQ)"><g stroke-linecap="round" transform="translate(737.9682539682526 776.6507936507936) rotate(0 157.50000000000045 57.50000000000006)"><path d="M28.75 0 C120.94 -0.67, 215.6 -4.07, 286.25 0 C303.24 2.08, 317.23 8.97, 315 28.75 C311.33 43.53, 313.37 60.31, 315 86.25 C313.03 107.34, 302.73 117.73, 286.25 115 C184.72 117.05, 86.31 118.2, 28.75 115 C5.99 112.52, -3.26 108.82, 0 86.25 C3.16 69.79, -0.83 52.32, 0 28.75 C1.79 8.88, 8.95 -0.15, 28.75 0" stroke="none" stroke-width="0" fill="#ffec99"></path><path d="M28.75 0 C97.69 0.26, 167.71 1.07, 286.25 0 M286.25 0 C306.05 0.95, 315.41 11.32, 315 28.75 M315 28.75 C316.2 50.47, 314.31 72.14, 315 86.25 M315 86.25 C315.76 105.79, 307.11 114.94, 286.25 115 M286.25 115 C206.05 115.01, 128.22 115.77, 28.75 115 M28.75 115 C9.64 116.48, 1.72 104.8, 0 86.25 M0 86.25 C-1.65 69.1, 1.33 53.13, 0 28.75 M0 28.75 C0.55 7.88, 7.89 0.19, 28.75 0" stroke="#343a40" stroke-width="1.5" fill="none" stroke-dasharray="8 9"></path></g></g><g clip-path="url(#wNyAAohJFNXp56VmLtbvQ)"><g transform="translate(746.8745039682535 811.6507936507936) rotate(0 148.59375 22.5)"><text x="148.59375" y="31.536" font-family="Virgil, Segoe UI Emoji" font-size="36px" fill="#343a40" text-anchor="middle" style="white-space: pre;" direction="ltr" dominant-baseline="alphabetic">"Macro" indicator</text></g></g><g clip-path="url(#wNyAAohJFNXp56VmLtbvQ)"><g stroke-linecap="round"><g transform="translate(912.5714285714294 554.2857142857142) rotate(0 16.59782427590426 108.4789109660046)"><path d="M-0.42 -1.09 C5.34 17.95, 34.38 77.21, 34.4 113.73 C34.42 150.26, 5.3 200.66, -0.29 218.04 M1.57 0.96 C7.19 19.7, 33.97 76.2, 33.51 112.07 C33.05 147.94, 4.12 198.86, -1.2 216.17" stroke="#343a40" stroke-width="2" fill="none"></path></g><g transform="translate(912.5714285714294 554.2857142857142) rotate(0 16.59782427590426 108.4789109660046)"><path d="M-0.03 191.2 C-2.27 198.58, 0.66 205.1, -1.2 216.17 M-0.03 191.2 C0.45 200.08, -1.1 210.53, -1.2 216.17" stroke="#343a40" stroke-width="2" fill="none"></path></g><g transform="translate(912.5714285714294 554.2857142857142) rotate(0 16.59782427590426 108.4789109660046)"><path d="M15.75 197.8 C8.99 203.22, 7.38 207.84, -1.2 216.17 M15.75 197.8 C10.26 204.32, 2.8 212.3, -1.2 216.17" stroke="#343a40" stroke-width="2" fill="none"></path></g></g><mask></mask></g><g clip-path="url(#wNyAAohJFNXp56VmLtbvQ)"><g stroke-linecap="round"><g transform="translate(884 775.7142857142857) rotate(0 -20.63655427742924 -108.60774672435264)"><path d="M0.11 0.88 C-6.53 -17.36, -39.93 -74.34, -40.29 -110.53 C-40.64 -146.71, -8.39 -198.36, -2 -216.23 M-1.29 0.29 C-8.08 -18.18, -41.21 -75.78, -41.39 -112.18 C-41.56 -148.57, -9.01 -200.63, -2.32 -218.09" stroke="#343a40" stroke-width="2" fill="none"></path></g><g transform="translate(884 775.7142857142857) rotate(0 -20.63655427742924 -108.60774672435264)"><path d="M-4.82 -193.22 C-2.47 -200.3, -1.77 -205, -2.32 -218.09 M-4.82 -193.22 C-4.43 -201.97, -3.69 -211.64, -2.32 -218.09" stroke="#343a40" stroke-width="2" fill="none"></path></g><g transform="translate(884 775.7142857142857) rotate(0 -20.63655427742924 -108.60774672435264)"><path d="M-20.22 -200.64 C-13.85 -205.77, -9.06 -208.5, -2.32 -218.09 M-20.22 -200.64 C-13.98 -206.53, -7.45 -213.4, -2.32 -218.09" stroke="#343a40" stroke-width="2" fill="none"></path></g></g><mask></mask></g><g clip-path="url(#wNyAAohJFNXp56VmLtbvQ)"><g stroke-linecap="round"><g transform="translate(255.42857142857338 561.4285714285713) rotate(0 16.65311759929091 108.53312989153096)"><path d="M-1.1 -0.26 C4.75 18.48, 34.14 76.91, 34.41 113.15 C34.67 149.38, 6.25 199.75, 0.48 217.17 M0.52 -1.44 C6.29 16.86, 33.61 74.52, 33.52 111.17 C33.43 147.83, 5.57 201.14, -0.03 218.51" stroke="#343a40" stroke-width="2" fill="none"></path></g><g transform="translate(255.42857142857338 561.4285714285713) rotate(0 16.65311759929091 108.53312989153096)"><path d="M0.88 193.53 C0.37 199.69, 1.07 206.27, -0.03 218.51 M0.88 193.53 C0.41 201.42, -0.39 208.85, -0.03 218.51" stroke="#343a40" stroke-width="2" fill="none"></path></g><g transform="translate(255.42857142857338 561.4285714285713) rotate(0 16.65311759929091 108.53312989153096)"><path d="M16.72 199.95 C12.39 204.43, 9.3 209.48, -0.03 218.51 M16.72 199.95 C11.47 205.97, 5.87 211.46, -0.03 218.51" stroke="#343a40" stroke-width="2" fill="none"></path></g></g><mask></mask></g><g clip-path="url(#wNyAAohJFNXp56VmLtbvQ)"><g stroke-linecap="round"><g transform="translate(222.57142857142935 775.7142857142857) rotate(0 -20.047646341897234 -109.18262809017341)"><path d="M0.12 0.29 C-6.28 -18.23, -38.99 -75.25, -39.52 -111.4 C-40.05 -147.54, -9.14 -199.04, -3.06 -216.6 M-1.28 -0.61 C-7.7 -18.9, -39.77 -73.5, -40.21 -109.84 C-40.65 -146.18, -10.16 -201.05, -3.94 -218.65" stroke="#343a40" stroke-width="2" fill="none"></path></g><g transform="translate(222.57142857142935 775.7142857142857) rotate(0 -20.047646341897234 -109.18262809017341)"><path d="M-5.51 -193.7 C-4.65 -198.09, -4.75 -204.44, -3.94 -218.65 M-5.51 -193.7 C-5.61 -202.13, -4.15 -210.35, -3.94 -218.65" stroke="#343a40" stroke-width="2" fill="none"></path></g><g transform="translate(222.57142857142935 775.7142857142857) rotate(0 -20.047646341897234 -109.18262809017341)"><path d="M-21.18 -200.55 C-17.07 -203.53, -13.91 -208.45, -3.94 -218.65 M-21.18 -200.55 C-15.87 -206.67, -9.01 -212.52, -3.94 -218.65" stroke="#343a40" stroke-width="2" fill="none"></path></g></g><mask></mask></g><g clip-path="url(#wNyAAohJFNXp56VmLtbvQ)"><g stroke-linecap="round"><g transform="translate(550.4491537728818 303.338220583423) rotate(270 10.857270468793558 172.28205881602554)"><path d="M0.73 0.32 C4.22 30.03, 20.93 120.18, 22 177.64 C23.07 235.11, 9.7 317.13, 7.14 345.12 M-0.35 -0.56 C2.94 28.88, 20.24 118.71, 21.36 175.97 C22.48 233.24, 8.83 315.11, 6.37 343.03" stroke="#343a40" stroke-width="2" fill="none"></path></g><g transform="translate(550.4491537728818 303.338220583423) rotate(270 10.857270468793558 172.28205881602554)"><path d="M0.7 318.68 C3.31 329.11, 6.42 337.6, 6.37 343.03 M0.7 318.68 C3.42 327.87, 3.61 334.6, 6.37 343.03" stroke="#343a40" stroke-width="2" fill="none"></path></g><g transform="translate(550.4491537728818 303.338220583423) rotate(270 10.857270468793558 172.28205881602554)"><path d="M17.67 320.73 C13.69 330.46, 10.19 338.15, 6.37 343.03 M17.67 320.73 C14.63 329.36, 9.05 335.39, 6.37 343.03" stroke="#343a40" stroke-width="2" fill="none"></path></g></g><mask></mask></g><g clip-path="url(#wNyAAohJFNXp56VmLtbvQ)"><g stroke-linecap="round"><g transform="translate(572.5161217486739 687.8135069251923) rotate(270 -13.11823413690945 -174.92201911459432)"><path d="M0.76 -0.33 C-3.71 -30.63, -23.91 -122.88, -26.32 -180.78 C-28.73 -238.69, -15.58 -319.72, -13.68 -347.78 M-0.3 -1.54 C-4.89 -31.65, -24.43 -124.42, -26.72 -182.41 C-29.02 -240.41, -16.03 -321.89, -14.07 -349.52" stroke="#343a40" stroke-width="2" fill="none"></path></g><g transform="translate(572.5161217486739 687.8135069251923) rotate(270 -13.11823413690945 -174.92201911459432)"><path d="M-8.09 -325.24 C-10.9 -331.8, -10.84 -340.65, -14.07 -349.52 M-8.09 -325.24 C-10.4 -335.54, -11.99 -344.93, -14.07 -349.52" stroke="#343a40" stroke-width="2" fill="none"></path></g><g transform="translate(572.5161217486739 687.8135069251923) rotate(270 -13.11823413690945 -174.92201911459432)"><path d="M-25.1 -327.08 C-22.06 -333.11, -16.17 -341.33, -14.07 -349.52 M-25.1 -327.08 C-20.69 -336.62, -15.55 -345.28, -14.07 -349.52" stroke="#343a40" stroke-width="2" fill="none"></path></g></g><mask></mask></g></svg>